<svg width="28" height="22" viewBox="0 0 28 22" fill="none" xmlns="http://www.w3.org/2000/svg">
<path d="M2 9.99893H14V11.9989H2V9.99893ZM0 4.99893H10V6.99893H0V4.99893Z" fill="#FEC500"/>
<path d="M27.919 10.6049L24.919 3.60493C24.842 3.42501 24.7139 3.27166 24.5505 3.16393C24.3871 3.0562 24.1957 2.99882 24 2.99893H21V0.998932C21 0.733715 20.8946 0.479362 20.7071 0.291825C20.5196 0.104289 20.2652 -0.00106812 20 -0.00106812H4V1.99893H19V14.5549C18.5443 14.8195 18.1456 15.1717 17.8267 15.5912C17.5078 16.0106 17.2751 16.4891 17.142 16.9989H10.858C10.6146 16.0563 10.0358 15.2347 9.22999 14.6883C8.42421 14.1419 7.44681 13.9081 6.481 14.0308C5.51519 14.1535 4.62727 14.6242 3.98368 15.3547C3.34009 16.0852 2.98502 17.0254 2.98502 17.9989C2.98502 18.9725 3.34009 19.9127 3.98368 20.6432C4.62727 21.3737 5.51519 21.8444 6.481 21.9671C7.44681 22.0897 8.42421 21.8559 9.22999 21.3095C10.0358 20.7631 10.6146 19.9416 10.858 18.9989H17.142C17.3595 19.8572 17.857 20.6184 18.5558 21.1621C19.2545 21.7058 20.1146 22.0011 21 22.0011C21.8854 22.0011 22.7455 21.7058 23.4442 21.1621C24.143 20.6184 24.6405 19.8572 24.858 18.9989H27C27.2652 18.9989 27.5196 18.8936 27.7071 18.706C27.8946 18.5185 28 18.2641 28 17.9989V10.9989C28 10.8635 27.9725 10.7294 27.919 10.6049ZM7 19.9989C6.60444 19.9989 6.21776 19.8816 5.88886 19.6619C5.55996 19.4421 5.30362 19.1298 5.15224 18.7643C5.00087 18.3988 4.96126 17.9967 5.03843 17.6088C5.1156 17.2208 5.30608 16.8644 5.58579 16.5847C5.86549 16.305 6.22186 16.1145 6.60982 16.0374C6.99778 15.9602 7.39991 15.9998 7.76537 16.1512C8.13082 16.3025 8.44318 16.5589 8.66294 16.8878C8.8827 17.2167 9 17.6034 9 17.9989C8.99947 18.5292 8.78859 19.0376 8.41363 19.4126C8.03867 19.7875 7.53027 19.9984 7 19.9989ZM21 4.99893H23.34L25.484 9.99893H21V4.99893ZM21 19.9989C20.6044 19.9989 20.2178 19.8816 19.8889 19.6619C19.56 19.4421 19.3036 19.1298 19.1522 18.7643C19.0009 18.3988 18.9613 17.9967 19.0384 17.6088C19.1156 17.2208 19.3061 16.8644 19.5858 16.5847C19.8655 16.305 20.2219 16.1145 20.6098 16.0374C20.9978 15.9602 21.3999 15.9998 21.7654 16.1512C22.1308 16.3025 22.4432 16.5589 22.6629 16.8878C22.8827 17.2167 23 17.6034 23 17.9989C22.9995 18.5292 22.7886 19.0376 22.4136 19.4126C22.0387 19.7875 21.5303 19.9984 21 19.9989ZM26 16.9989H24.858C24.6377 16.1424 24.1394 15.3831 23.4412 14.8402C22.743 14.2973 21.8844 14.0014 21 13.9989V11.9989H26V16.9989Z" fill="#FEC500"/>
</svg>
