<svg width="28" height="26" viewBox="0 0 28 26" fill="none" xmlns="http://www.w3.org/2000/svg">
<path d="M23.9518 11.7346C23.9518 13.7514 23.2986 15.7229 22.0747 17.3998C20.8508 19.0767 19.1113 20.3837 17.0761 21.1555C15.0409 21.9272 12.8014 22.1292 10.6409 21.7357C8.48031 21.3423 6.49571 20.3711 4.93803 18.945C3.38035 17.5189 2.31956 15.702 1.8898 13.7239C1.46004 11.7459 1.68061 9.69561 2.52362 7.83234C3.36662 5.96907 4.79421 4.37651 6.62584 3.25604C8.45748 2.13557 10.6109 1.53752 12.8138 1.53752C15.7678 1.53752 18.6008 2.61185 20.6895 4.52417C22.7783 6.4365 23.9518 9.03016 23.9518 11.7346Z" stroke="#204F38" stroke-width="2" stroke-linecap="round" stroke-linejoin="round"/>
<path d="M26.7357 24.4803L20.6797 18.9359" stroke="black" stroke-width="2" stroke-linecap="round" stroke-linejoin="round"/>
</svg>
