<svg width="28" height="25" viewBox="0 0 28 25" fill="none" xmlns="http://www.w3.org/2000/svg">
<path d="M1.62611 4.66767H6.06211C6.21179 5.46681 6.66524 6.19177 7.34232 6.71441C8.01939 7.23704 8.8765 7.52369 9.76211 7.52369C10.6477 7.52369 11.5048 7.23704 12.1819 6.71441C12.859 6.19177 13.3124 5.46681 13.4621 4.66767H26.6621C26.7464 4.67076 26.8304 4.65823 26.9092 4.63084C26.9881 4.60345 27.06 4.56177 27.1208 4.50829C27.1816 4.45481 27.23 4.39063 27.2631 4.31962C27.2961 4.2486 27.3131 4.1722 27.3131 4.09501C27.3131 4.01782 27.2961 3.94143 27.2631 3.87041C27.23 3.7994 27.1816 3.73522 27.1208 3.68174C27.06 3.62826 26.9881 3.58658 26.9092 3.55919C26.8304 3.5318 26.7464 3.51927 26.6621 3.52236H13.4621C13.3124 2.72322 12.859 1.99826 12.1819 1.47562C11.5048 0.952989 10.6477 0.666336 9.76211 0.666336C8.8765 0.666336 8.01939 0.952989 7.34232 1.47562C6.66524 1.99826 6.21179 2.72322 6.06211 3.52236H1.62611C1.46455 3.52827 1.31175 3.59119 1.19972 3.69794C1.08769 3.80469 1.02513 3.94698 1.02513 4.09501C1.02513 4.24305 1.08769 4.38534 1.19972 4.49209C1.31175 4.59884 1.46455 4.66176 1.62611 4.66767ZM9.76011 1.80392C10.2546 1.80392 10.7379 1.93816 11.149 2.18966C11.5602 2.44115 11.8806 2.79862 12.0698 3.21684C12.259 3.63506 12.3085 4.09526 12.2121 4.53925C12.1156 4.98323 11.8775 5.39106 11.5279 5.71115C11.1782 6.03125 10.7328 6.24923 10.2478 6.33755C9.76289 6.42586 9.26022 6.38054 8.8034 6.2073C8.34659 6.03407 7.95614 5.74071 7.68144 5.36432C7.40673 4.98792 7.26011 4.54541 7.26011 4.09273C7.26011 3.4857 7.5235 2.90353 7.99235 2.4743C8.46119 2.04506 9.09707 1.80392 9.76011 1.80392ZM26.6601 12.1154H22.2191C22.0694 11.3163 21.616 10.5913 20.9389 10.0687C20.2618 9.54606 19.4047 9.25941 18.5191 9.25941C17.6335 9.25941 16.7764 9.54606 16.0993 10.0687C15.4222 10.5913 14.9688 11.3163 14.8191 12.1154H1.62611C1.54187 12.1123 1.45781 12.1249 1.37898 12.1523C1.30015 12.1797 1.22818 12.2213 1.16738 12.2748C1.10658 12.3283 1.05821 12.3925 1.02517 12.4635C0.992129 12.5345 0.975098 12.6109 0.975098 12.6881C0.975098 12.7653 0.992129 12.8417 1.02517 12.9127C1.05821 12.9837 1.10658 13.0479 1.16738 13.1014C1.22818 13.1548 1.30015 13.1965 1.37898 13.2239C1.45781 13.2513 1.54187 13.2638 1.62611 13.2607H14.8261C14.9758 14.0599 15.4292 14.7848 16.1063 15.3075C16.7834 15.8301 17.6405 16.1168 18.5261 16.1168C19.4117 16.1168 20.2688 15.8301 20.9459 15.3075C21.623 14.7848 22.0764 14.0599 22.2261 13.2607H26.6631C26.7474 13.2638 26.8314 13.2513 26.9102 13.2239C26.9891 13.1965 27.061 13.1548 27.1218 13.1014C27.1826 13.0479 27.231 12.9837 27.2641 12.9127C27.2971 12.8417 27.3141 12.7653 27.3141 12.6881C27.3141 12.6109 27.2971 12.5345 27.2641 12.4635C27.231 12.3925 27.1826 12.3283 27.1218 12.2748C27.061 12.2213 26.9891 12.1797 26.9102 12.1523C26.8314 12.1249 26.7474 12.1123 26.6631 12.1154H26.6601ZM18.5251 14.9801C18.0307 14.9801 17.5473 14.8459 17.1362 14.5944C16.7251 14.3429 16.4046 13.9854 16.2154 13.5672C16.0262 13.149 15.9767 12.6888 16.0731 12.2448C16.1696 11.8008 16.4077 11.393 16.7573 11.0729C17.107 10.7528 17.5524 10.5348 18.0374 10.4465C18.5223 10.3582 19.025 10.4035 19.4818 10.5767C19.9386 10.75 20.3291 11.0433 20.6038 11.4197C20.8785 11.7961 21.0251 12.2386 21.0251 12.6913C21.0251 12.9922 20.9603 13.2901 20.8344 13.568C20.7085 13.846 20.524 14.0984 20.2915 14.311C20.0589 14.5236 19.7828 14.6921 19.479 14.8069C19.1753 14.9217 18.8498 14.9806 18.5211 14.9801H18.5251ZM26.6601 20.7085H13.4601C13.3104 19.9094 12.857 19.1844 12.1799 18.6618C11.5028 18.1391 10.6457 17.8525 9.76011 17.8525C8.8745 17.8525 8.01739 18.1391 7.34032 18.6618C6.66324 19.1844 6.20979 19.9094 6.06011 20.7085H1.62611C1.46455 20.7144 1.31175 20.7773 1.19972 20.8841C1.08769 20.9908 1.02513 21.1331 1.02513 21.2812C1.02513 21.4292 1.08769 21.5715 1.19972 21.6782C1.31175 21.785 1.46455 21.8479 1.62611 21.8538H6.06211C6.21179 22.653 6.66524 23.3779 7.34232 23.9006C8.01939 24.4232 8.8765 24.7098 9.76211 24.7098C10.6477 24.7098 11.5048 24.4232 12.1819 23.9006C12.859 23.3779 13.3124 22.653 13.4621 21.8538H26.6621C26.7464 21.8569 26.8304 21.8444 26.9092 21.817C26.9881 21.7896 27.06 21.7479 27.1208 21.6944C27.1816 21.641 27.23 21.5768 27.2631 21.5058C27.2961 21.4347 27.3131 21.3584 27.3131 21.2812C27.3131 21.204 27.2961 21.1276 27.2631 21.0566C27.23 20.9855 27.1816 20.9214 27.1208 20.8679C27.06 20.8144 26.9881 20.7727 26.9092 20.7453C26.8304 20.718 26.7464 20.7054 26.6621 20.7085H26.6601ZM9.76011 23.5732C9.26566 23.5732 8.78231 23.4389 8.37119 23.1874C7.96006 22.9359 7.63963 22.5785 7.45041 22.1603C7.26119 21.742 7.21169 21.2818 7.30815 20.8378C7.40461 20.3939 7.64271 19.986 7.99235 19.6659C8.34198 19.3458 8.78743 19.1279 9.27239 19.0395C9.75734 18.9512 10.26 18.9966 10.7168 19.1698C11.1736 19.343 11.5641 19.6364 11.8388 20.0128C12.1135 20.3892 12.2601 20.8317 12.2601 21.2844C12.2601 21.8914 11.9967 22.4736 11.5279 22.9028C11.059 23.332 10.4232 23.5732 9.76011 23.5732Z" fill="#204F38"/>
</svg>
